<?xml version="1.0" encoding="UTF-8" standalone="no"?>
<!DOCTYPE svg PUBLIC "-//W3C//DTD SVG 1.1//EN"
 "http://www.w3.org/Graphics/SVG/1.1/DTD/svg11.dtd">
<!-- Generated by graphviz version 2.38.0 (20140413.2041)
 -->
<!-- Title: controllers_diagram Pages: 1 -->
<svg width="392pt" height="427pt"
 viewBox="0.00 0.00 392.00 426.50" xmlns="http://www.w3.org/2000/svg" xmlns:xlink="http://www.w3.org/1999/xlink">
<g id="graph0" class="graph" transform="scale(1 1) rotate(0) translate(106 235.5)">
<title>controllers_diagram</title>
<polygon fill="none" stroke="none" points="-106,191 -106,-235.5 286,-235.5 286,191 -106,191"/>
<!-- _diagram_info -->
<g id="node1" class="node"><title>_diagram_info</title>
<text text-anchor="start" x="76" y="123.4" font-family="Times,serif" font-size="13.00">Controllers diagram</text>
<text text-anchor="start" x="76" y="137.4" font-family="Times,serif" font-size="13.00">Date: Mar 02 2017 &#45; 11:10</text>
<text text-anchor="start" x="76" y="151.4" font-family="Times,serif" font-size="13.00">Migration version: 20170302135613</text>
<text text-anchor="start" x="76" y="165.4" font-family="Times,serif" font-size="13.00">Generated by RailRoady 1.5.2</text>
<text text-anchor="start" x="76" y="179.4" font-family="Times,serif" font-size="13.00">http://railroady.prestonlee.com</text>
</g>
<!-- SongsController -->
<g id="node2" class="node"><title>SongsController</title>
<path fill="none" stroke="black" d="M-55.5,118.5C-55.5,118.5 25.5,118.5 25.5,118.5 31.5,118.5 37.5,112.5 37.5,106.5 37.5,106.5 37.5,-82.5 37.5,-82.5 37.5,-88.5 31.5,-94.5 25.5,-94.5 25.5,-94.5 -55.5,-94.5 -55.5,-94.5 -61.5,-94.5 -67.5,-88.5 -67.5,-82.5 -67.5,-82.5 -67.5,106.5 -67.5,106.5 -67.5,112.5 -61.5,118.5 -55.5,118.5"/>
<text text-anchor="middle" x="-15" y="-79.3" font-family="Times,serif" font-size="14.00">SongsController</text>
<polyline fill="none" stroke="black" points="-67.5,-71.5 37.5,-71.5 "/>
<text text-anchor="start" x="-59.5" y="-56.3" font-family="Times,serif" font-size="14.00">create</text>
<text text-anchor="start" x="-59.5" y="-41.3" font-family="Times,serif" font-size="14.00">destroy</text>
<text text-anchor="start" x="-59.5" y="-26.3" font-family="Times,serif" font-size="14.00">edit</text>
<text text-anchor="start" x="-59.5" y="-11.3" font-family="Times,serif" font-size="14.00">index</text>
<text text-anchor="start" x="-59.5" y="3.7" font-family="Times,serif" font-size="14.00">new</text>
<text text-anchor="start" x="-59.5" y="18.7" font-family="Times,serif" font-size="14.00">show</text>
<text text-anchor="start" x="-59.5" y="33.7" font-family="Times,serif" font-size="14.00">update</text>
<polyline fill="none" stroke="black" points="-67.5,41.5 37.5,41.5 "/>
<polyline fill="none" stroke="black" points="-67.5,65.5 37.5,65.5 "/>
<text text-anchor="start" x="-59.5" y="80.7" font-family="Times,serif" font-size="14.00">_layout</text>
<text text-anchor="start" x="-59.5" y="95.7" font-family="Times,serif" font-size="14.00">set_song</text>
<text text-anchor="start" x="-59.5" y="110.7" font-family="Times,serif" font-size="14.00">song_params</text>
</g>
<!-- ApplicationController -->
<g id="node3" class="node"><title>ApplicationController</title>
<path fill="none" stroke="black" d="M-90,-137C-90,-137 22,-137 22,-137 28,-137 34,-143 34,-149 34,-149 34,-219 34,-219 34,-225 28,-231 22,-231 22,-231 -90,-231 -90,-231 -96,-231 -102,-225 -102,-219 -102,-219 -102,-149 -102,-149 -102,-143 -96,-137 -90,-137"/>
<text text-anchor="middle" x="-34" y="-215.8" font-family="Times,serif" font-size="14.00">ApplicationController</text>
<polyline fill="none" stroke="black" points="-102,-208 34,-208 "/>
<polyline fill="none" stroke="black" points="-102,-184 34,-184 "/>
<polyline fill="none" stroke="black" points="-102,-160 34,-160 "/>
<text text-anchor="start" x="-94" y="-144.8" font-family="Times,serif" font-size="14.00">_layout</text>
</g>
<!-- GenresController -->
<g id="node4" class="node"><title>GenresController</title>
<path fill="none" stroke="black" d="M80,67.5C80,67.5 166,67.5 166,67.5 172,67.5 178,61.5 178,55.5 178,55.5 178,-133.5 178,-133.5 178,-139.5 172,-145.5 166,-145.5 166,-145.5 80,-145.5 80,-145.5 74,-145.5 68,-139.5 68,-133.5 68,-133.5 68,55.5 68,55.5 68,61.5 74,67.5 80,67.5"/>
<text text-anchor="middle" x="123" y="-130.3" font-family="Times,serif" font-size="14.00">GenresController</text>
<polyline fill="none" stroke="black" points="68,-122.5 178,-122.5 "/>
<text text-anchor="start" x="76" y="-107.3" font-family="Times,serif" font-size="14.00">create</text>
<text text-anchor="start" x="76" y="-92.3" font-family="Times,serif" font-size="14.00">destroy</text>
<text text-anchor="start" x="76" y="-77.3" font-family="Times,serif" font-size="14.00">edit</text>
<text text-anchor="start" x="76" y="-62.3" font-family="Times,serif" font-size="14.00">index</text>
<text text-anchor="start" x="76" y="-47.3" font-family="Times,serif" font-size="14.00">new</text>
<text text-anchor="start" x="76" y="-32.3" font-family="Times,serif" font-size="14.00">show</text>
<text text-anchor="start" x="76" y="-17.3" font-family="Times,serif" font-size="14.00">update</text>
<polyline fill="none" stroke="black" points="68,-9.5 178,-9.5 "/>
<polyline fill="none" stroke="black" points="68,14.5 178,14.5 "/>
<text text-anchor="start" x="76" y="29.7" font-family="Times,serif" font-size="14.00">_layout</text>
<text text-anchor="start" x="76" y="44.7" font-family="Times,serif" font-size="14.00">genre_params</text>
<text text-anchor="start" x="76" y="59.7" font-family="Times,serif" font-size="14.00">set_genre</text>
</g>
</g>
</svg>
