<?xml version="1.0" encoding="UTF-8" standalone="no"?>
<!DOCTYPE svg PUBLIC "-//W3C//DTD SVG 1.1//EN"
 "http://www.w3.org/Graphics/SVG/1.1/DTD/svg11.dtd">
<!-- Generated by graphviz version 2.38.0 (20140413.2041)
 -->
<!-- Title: models_diagram Pages: 1 -->
<svg width="1512pt" height="250pt"
 viewBox="0.00 0.00 1512.00 250.00" xmlns="http://www.w3.org/2000/svg" xmlns:xlink="http://www.w3.org/1999/xlink">
<g id="graph0" class="graph" transform="scale(1 1) rotate(0) translate(4 246)">
<title>models_diagram</title>
<polygon fill="none" stroke="none" points="-4,4 -4,-246 1508,-246 1508,4 -4,4"/>
<!-- _diagram_info -->
<g id="node1" class="node"><title>_diagram_info</title>
<text text-anchor="start" x="8" y="-145.6" font-family="Times,serif" font-size="13.00">Models diagram</text>
<text text-anchor="start" x="8" y="-131.6" font-family="Times,serif" font-size="13.00">Date: Mar 02 2017 &#45; 11:10</text>
<text text-anchor="start" x="8" y="-117.6" font-family="Times,serif" font-size="13.00">Migration version: 20170302135613</text>
<text text-anchor="start" x="8" y="-103.6" font-family="Times,serif" font-size="13.00">Generated by RailRoady 1.5.2</text>
<text text-anchor="start" x="8" y="-89.6" font-family="Times,serif" font-size="13.00">http://railroady.prestonlee.com</text>
</g>
<!-- UserSong -->
<g id="node2" class="node"><title>UserSong</title>
<path fill="none" stroke="black" d="M244,-60.5C244,-60.5 464,-60.5 464,-60.5 470,-60.5 476,-66.5 476,-72.5 476,-72.5 476,-169.5 476,-169.5 476,-175.5 470,-181.5 464,-181.5 464,-181.5 244,-181.5 244,-181.5 238,-181.5 232,-175.5 232,-169.5 232,-169.5 232,-72.5 232,-72.5 232,-66.5 238,-60.5 244,-60.5"/>
<text text-anchor="middle" x="354" y="-166.3" font-family="Times,serif" font-size="14.00">UserSong</text>
<polyline fill="none" stroke="black" points="232,-158.5 476,-158.5 "/>
<text text-anchor="start" x="240" y="-143.3" font-family="Times,serif" font-size="14.00">id :integer</text>
<text text-anchor="start" x="240" y="-128.3" font-family="Times,serif" font-size="14.00">position :integer</text>
<text text-anchor="start" x="240" y="-113.3" font-family="Times,serif" font-size="14.00">user_id :integer</text>
<text text-anchor="start" x="240" y="-98.3" font-family="Times,serif" font-size="14.00">song_id :integer</text>
<text text-anchor="start" x="240" y="-83.3" font-family="Times,serif" font-size="14.00">created_at :timestamp without time zone</text>
<text text-anchor="start" x="240" y="-68.3" font-family="Times,serif" font-size="14.00">updated_at :timestamp without time zone</text>
</g>
<!-- Genre -->
<g id="node3" class="node"><title>Genre</title>
<path fill="none" stroke="black" d="M506,-75.5C506,-75.5 726,-75.5 726,-75.5 732,-75.5 738,-81.5 738,-87.5 738,-87.5 738,-154.5 738,-154.5 738,-160.5 732,-166.5 726,-166.5 726,-166.5 506,-166.5 506,-166.5 500,-166.5 494,-160.5 494,-154.5 494,-154.5 494,-87.5 494,-87.5 494,-81.5 500,-75.5 506,-75.5"/>
<text text-anchor="middle" x="616" y="-151.3" font-family="Times,serif" font-size="14.00">Genre</text>
<polyline fill="none" stroke="black" points="494,-143.5 738,-143.5 "/>
<text text-anchor="start" x="502" y="-128.3" font-family="Times,serif" font-size="14.00">id :integer</text>
<text text-anchor="start" x="502" y="-113.3" font-family="Times,serif" font-size="14.00">name :character varying</text>
<text text-anchor="start" x="502" y="-98.3" font-family="Times,serif" font-size="14.00">created_at :timestamp without time zone</text>
<text text-anchor="start" x="502" y="-83.3" font-family="Times,serif" font-size="14.00">updated_at :timestamp without time zone</text>
</g>
<!-- ApplicationRecord -->
<g id="node4" class="node"><title>ApplicationRecord</title>
<ellipse fill="none" stroke="black" cx="833" cy="-121" rx="77.1866" ry="18"/>
<text text-anchor="middle" x="833" y="-117.3" font-family="Times,serif" font-size="14.00">ApplicationRecord</text>
</g>
<!-- User -->
<g id="node5" class="node"><title>User</title>
<path fill="none" stroke="black" d="M940.5,-0.5C940.5,-0.5 1229.5,-0.5 1229.5,-0.5 1235.5,-0.5 1241.5,-6.5 1241.5,-12.5 1241.5,-12.5 1241.5,-229.5 1241.5,-229.5 1241.5,-235.5 1235.5,-241.5 1229.5,-241.5 1229.5,-241.5 940.5,-241.5 940.5,-241.5 934.5,-241.5 928.5,-235.5 928.5,-229.5 928.5,-229.5 928.5,-12.5 928.5,-12.5 928.5,-6.5 934.5,-0.5 940.5,-0.5"/>
<text text-anchor="middle" x="1085" y="-226.3" font-family="Times,serif" font-size="14.00">User</text>
<polyline fill="none" stroke="black" points="928.5,-218.5 1241.5,-218.5 "/>
<text text-anchor="start" x="936.5" y="-203.3" font-family="Times,serif" font-size="14.00">id :integer</text>
<text text-anchor="start" x="936.5" y="-188.3" font-family="Times,serif" font-size="14.00">email :character varying</text>
<text text-anchor="start" x="936.5" y="-173.3" font-family="Times,serif" font-size="14.00">encrypted_password :character varying</text>
<text text-anchor="start" x="936.5" y="-158.3" font-family="Times,serif" font-size="14.00">reset_password_token :character varying</text>
<text text-anchor="start" x="936.5" y="-143.3" font-family="Times,serif" font-size="14.00">reset_password_sent_at :timestamp without time zone</text>
<text text-anchor="start" x="936.5" y="-128.3" font-family="Times,serif" font-size="14.00">remember_created_at :timestamp without time zone</text>
<text text-anchor="start" x="936.5" y="-113.3" font-family="Times,serif" font-size="14.00">sign_in_count :integer</text>
<text text-anchor="start" x="936.5" y="-98.3" font-family="Times,serif" font-size="14.00">current_sign_in_at :timestamp without time zone</text>
<text text-anchor="start" x="936.5" y="-83.3" font-family="Times,serif" font-size="14.00">last_sign_in_at :timestamp without time zone</text>
<text text-anchor="start" x="936.5" y="-68.3" font-family="Times,serif" font-size="14.00">current_sign_in_ip :inet</text>
<text text-anchor="start" x="936.5" y="-53.3" font-family="Times,serif" font-size="14.00">last_sign_in_ip :inet</text>
<text text-anchor="start" x="936.5" y="-38.3" font-family="Times,serif" font-size="14.00">name :character varying</text>
<text text-anchor="start" x="936.5" y="-23.3" font-family="Times,serif" font-size="14.00">created_at :timestamp without time zone</text>
<text text-anchor="start" x="936.5" y="-8.3" font-family="Times,serif" font-size="14.00">updated_at :timestamp without time zone</text>
</g>
<!-- Song -->
<g id="node6" class="node"><title>Song</title>
<path fill="none" stroke="black" d="M1272,-60.5C1272,-60.5 1492,-60.5 1492,-60.5 1498,-60.5 1504,-66.5 1504,-72.5 1504,-72.5 1504,-169.5 1504,-169.5 1504,-175.5 1498,-181.5 1492,-181.5 1492,-181.5 1272,-181.5 1272,-181.5 1266,-181.5 1260,-175.5 1260,-169.5 1260,-169.5 1260,-72.5 1260,-72.5 1260,-66.5 1266,-60.5 1272,-60.5"/>
<text text-anchor="middle" x="1382" y="-166.3" font-family="Times,serif" font-size="14.00">Song</text>
<polyline fill="none" stroke="black" points="1260,-158.5 1504,-158.5 "/>
<text text-anchor="start" x="1268" y="-143.3" font-family="Times,serif" font-size="14.00">id :integer</text>
<text text-anchor="start" x="1268" y="-128.3" font-family="Times,serif" font-size="14.00">name :character varying</text>
<text text-anchor="start" x="1268" y="-113.3" font-family="Times,serif" font-size="14.00">duration :integer</text>
<text text-anchor="start" x="1268" y="-98.3" font-family="Times,serif" font-size="14.00">genre_id :integer</text>
<text text-anchor="start" x="1268" y="-83.3" font-family="Times,serif" font-size="14.00">created_at :timestamp without time zone</text>
<text text-anchor="start" x="1268" y="-68.3" font-family="Times,serif" font-size="14.00">updated_at :timestamp without time zone</text>
</g>
</g>
</svg>
